<?xml version="1.0" encoding="iso-8859-1"?>
<!-- Generator: Adobe Illustrator 19.0.0, SVG Export Plug-In . SVG Version: 6.00 Build 0)  -->
<svg version="1.1" id="Capa_1" xmlns="http://www.w3.org/2000/svg" xmlns:xlink="http://www.w3.org/1999/xlink" x="0px" y="0px"
	 viewBox="0 0 512 512" style="enable-background:new 0 0 512 512;" xml:space="preserve">
<g>
	<g transform="translate(1 1)">
		<path style="fill:#283593;" d="M502.467,468.333V485.4c-0.028,9.414-7.653,17.039-17.067,17.067H24.6
			c-9.414-0.028-17.039-7.653-17.067-17.067v-17.067l59.733-76.8v-42.667h375.467v42.667L502.467,468.333z"/>
		<path style="fill:#3F51B5;" d="M476.867,468.333V485.4c-0.028,9.414-7.653,17.039-17.067,17.067H24.6
			c-9.414-0.028-17.039-7.653-17.067-17.067v-17.067l59.733-76.8v-42.667h349.867v42.667L476.867,468.333z"/>
		<path style="fill:#1566C0;" d="M7.533,468.333h494.933V485.4c0,9.426-7.641,17.067-17.067,17.067H24.6
			c-9.426,0-17.067-7.641-17.067-17.067V468.333z"/>
		<path style="fill:#2296F3;" d="M7.533,468.333h469.333V485.4c0,9.426-7.641,17.067-17.067,17.067H24.6
			c-9.426,0-17.067-7.641-17.067-17.067V468.333z"/>
		<rect x="67.267" y="126.292" style="fill:#FF9801;" width="375.467" height="265.216"/>
		<rect x="67.267" y="126.292" style="fill:#FEC108;" width="349.867" height="265.216"/>
		<path style="fill:#E91E63;" d="M485.4,127v42.667c-0.028,9.414-7.652,17.039-17.067,17.067h-17.067
			c-9.416-0.023-17.044-7.651-17.067-17.067c-0.028,9.414-7.652,17.039-17.067,17.067h-17.067
			c-9.414-0.028-17.039-7.652-17.067-17.067c-0.028,9.414-7.653,17.039-17.067,17.067h-17.067
			c-9.414-0.028-17.039-7.652-17.067-17.067c-0.028,9.414-7.652,17.039-17.067,17.067h-17.067
			c-9.414-0.028-17.039-7.652-17.067-17.067c-0.028,9.414-7.652,17.039-17.067,17.067h-17.067
			c-9.414-0.028-17.039-7.652-17.067-17.067c-0.028,9.414-7.653,17.039-17.067,17.067h-17.067
			c-9.414-0.028-17.039-7.652-17.067-17.067c-0.028,9.414-7.653,17.039-17.067,17.067h-17.067
			c-9.414-0.028-17.039-7.652-17.067-17.067c-0.028,9.414-7.653,17.039-17.067,17.067H92.867
			c-9.414-0.028-17.039-7.652-17.067-17.067c-0.023,9.416-7.651,17.044-17.067,17.067H41.667
			c-9.414-0.028-17.039-7.652-17.067-17.067V127l88.747-112.981c3.242-4.093,8.176-6.481,13.397-6.485h256.512
			c5.221,0.004,10.155,2.393,13.397,6.485L485.4,127z"/>
		<path style="fill:#67B9CC;" d="M127,229.4h102.4c4.713,0,8.533,3.821,8.533,8.533v59.733c0,4.713-3.821,8.533-8.533,8.533H127
			c-4.713,0-8.533-3.82-8.533-8.533v-59.733C118.467,233.221,122.287,229.4,127,229.4z"/>
		<rect x="272.067" y="229.4" style="fill:#795548;" width="119.467" height="162.133"/>
		<g>
			<polygon style="fill:#CFD8DC;" points="331.8,263.533 306.2,297.667 357.4,297.667 			"/>
			<rect x="306.2" y="297.667" style="fill:#CFD8DC;" width="51.2" height="34.133"/>
		</g>
		<path style="fill:#AD1457;" d="M485.4,127v42.667c-0.028,9.414-7.652,17.039-17.067,17.067h-17.067
			c-1.444,0.017-2.883-0.184-4.267-0.597c7.523-1.929,12.788-8.703,12.8-16.469V127L371.053,14.019
			c-3.242-4.093-8.176-6.481-13.397-6.485h25.6c5.221,0.004,10.155,2.393,13.397,6.485L485.4,127z"/>
	</g>
	<g>
		<path d="M511.347,466.096c-0.06-0.144-0.161-0.257-0.228-0.396c-0.247-0.567-0.555-1.105-0.92-1.604l-57.933-74.486V196.267
			h17.067c14.132-0.015,25.585-11.468,25.6-25.6V128c-0.047-0.352-0.117-0.701-0.21-1.044c-0.077-1.179-0.472-2.316-1.141-3.29
			c-0.137-0.323-0.295-0.636-0.473-0.937L404.342,9.721C399.498,3.565,392.091-0.02,384.258,0H127.742
			c-7.843-0.019-15.257,3.576-20.1,9.746l-88.75,112.983c-0.178,0.302-0.336,0.616-0.473,0.939
			c-0.669,0.973-1.063,2.109-1.141,3.287c-0.093,0.343-0.164,0.692-0.211,1.045v42.667c0.015,14.132,11.468,25.585,25.6,25.6h17.067
			V389.61L1.8,464.096c-0.366,0.501-0.675,1.04-0.922,1.609c-0.066,0.138-0.166,0.248-0.224,0.39
			c-0.367,0.93-0.566,1.917-0.589,2.917C0.06,469.124,0,469.219,0,469.333V486.4c0.015,14.132,11.468,25.585,25.6,25.6h460.8
			c14.132-0.015,25.585-11.468,25.6-25.6v-17.067c0-0.114-0.06-0.209-0.065-0.322C511.913,468.013,511.714,467.026,511.347,466.096z
			 M384,384H281.6V238.933H384V384z M392.533,221.867H273.067c-2.263-0.001-4.434,0.898-6.035,2.499
			c-1.6,1.6-2.499,3.771-2.499,6.035V384H76.8V189.608c4.663,4.265,10.748,6.639,17.067,6.658h17.067
			c6.319-0.02,12.404-2.394,17.067-6.658c4.663,4.265,10.748,6.639,17.067,6.658h17.067c6.319-0.02,12.404-2.394,17.067-6.658
			c4.663,4.265,10.748,6.639,17.067,6.658h17.067c6.319-0.02,12.404-2.394,17.067-6.658c4.663,4.265,10.748,6.639,17.067,6.658
			h17.067c6.319-0.02,12.404-2.394,17.067-6.658c4.663,4.265,10.748,6.639,17.067,6.658h17.067
			c6.319-0.02,12.404-2.394,17.067-6.658c4.663,4.265,10.748,6.639,17.067,6.658h17.067c6.319-0.02,12.404-2.394,17.067-6.658
			c4.663,4.265,10.748,6.639,17.067,6.658h17.067c6.319-0.02,12.404-2.394,17.067-6.658V384h-34.133V230.4
			c0.001-2.263-0.898-4.434-2.499-6.035C396.968,222.765,394.797,221.866,392.533,221.867z M42.667,179.2
			c-4.711-0.005-8.529-3.822-8.533-8.533v-39.719l86.908-110.635c1.626-2.041,4.09-3.235,6.7-3.246h256.517
			c2.6,0.01,5.056,1.193,6.683,3.221l86.925,110.66v39.719c-0.005,4.711-3.822,8.529-8.533,8.533h-17.067
			c-4.703-0.023-8.51-3.83-8.533-8.533v-25.6c0-4.713-3.821-8.533-8.533-8.533s-8.533,3.821-8.533,8.533v25.6
			c-0.005,4.711-3.822,8.529-8.533,8.533h-17.067c-4.711-0.005-8.529-3.822-8.533-8.533V128c0-4.713-3.82-8.533-8.533-8.533
			s-8.533,3.821-8.533,8.533v42.667c-0.005,4.711-3.822,8.529-8.533,8.533h-17.067c-4.711-0.005-8.529-3.822-8.533-8.533v-25.6
			c0-4.713-3.82-8.533-8.533-8.533s-8.533,3.821-8.533,8.533v25.6c-0.005,4.711-3.822,8.529-8.533,8.533h-17.067
			c-4.711-0.005-8.529-3.822-8.533-8.533V128c0-4.713-3.821-8.533-8.533-8.533s-8.533,3.821-8.533,8.533v42.667
			c-0.005,4.711-3.822,8.529-8.533,8.533h-17.067c-4.711-0.005-8.529-3.822-8.533-8.533v-25.6c0-4.713-3.821-8.533-8.533-8.533
			s-8.533,3.821-8.533,8.533v25.6c-0.005,4.711-3.822,8.529-8.533,8.533h-17.067c-4.711-0.005-8.529-3.822-8.533-8.533V128
			c0-4.713-3.82-8.533-8.533-8.533s-8.533,3.821-8.533,8.533v42.667c-0.005,4.711-3.822,8.529-8.533,8.533h-17.067
			c-4.711-0.005-8.529-3.822-8.533-8.533v-25.6c0-4.713-3.821-8.533-8.533-8.533c-4.713,0-8.533,3.821-8.533,8.533v25.6
			c-0.005,4.711-3.822,8.529-8.533,8.533H93.867c-4.711-0.005-8.529-3.822-8.533-8.533V128c0-4.713-3.82-8.533-8.533-8.533
			c-4.713,0-8.533,3.821-8.533,8.533v42.667c-0.025,4.703-3.831,8.509-8.533,8.533H42.667z M72.442,401.067h367.117l46.458,59.733
			H25.983L72.442,401.067z M494.933,486.4c-0.005,4.711-3.822,8.529-8.533,8.533H25.6c-4.711-0.005-8.529-3.822-8.533-8.533v-8.533
			h477.867V486.4z"/>
		<path d="M392.533,426.667H119.467c-4.713,0-8.533,3.82-8.533,8.533s3.821,8.533,8.533,8.533h273.067
			c4.713,0,8.533-3.821,8.533-8.533S397.246,426.667,392.533,426.667z"/>
		<path d="M85.333,426.667H76.8c-4.713,0-8.533,3.82-8.533,8.533s3.821,8.533,8.533,8.533h8.533c4.713,0,8.533-3.821,8.533-8.533
			S90.046,426.667,85.333,426.667z"/>
		<path d="M435.2,426.667h-8.533c-4.713,0-8.533,3.82-8.533,8.533s3.82,8.533,8.533,8.533h8.533c4.713,0,8.533-3.821,8.533-8.533
			S439.913,426.667,435.2,426.667z"/>
		<path d="M238.933,221.867H119.467c-2.263-0.001-4.434,0.898-6.035,2.499c-1.6,1.6-2.499,3.771-2.499,6.035v76.8
			c-0.001,2.263,0.898,4.434,2.499,6.035c1.6,1.6,3.771,2.499,6.035,2.499h119.467c2.263,0.001,4.434-0.898,6.035-2.499
			c1.6-1.6,2.499-3.771,2.499-6.035v-76.8c0.001-2.263-0.898-4.434-2.499-6.035C243.368,222.765,241.197,221.866,238.933,221.867z
			 M230.4,298.667H128v-59.733h102.4V298.667z"/>
		<path d="M307.2,341.333h51.2c2.263,0.001,4.434-0.898,6.035-2.499c1.6-1.6,2.499-3.771,2.499-6.035v-34.133
			c0-0.102-0.054-0.186-0.058-0.287c-0.023-0.995-0.221-1.978-0.586-2.904c-0.073-0.182-0.192-0.328-0.278-0.503
			c-0.215-0.5-0.479-0.978-0.787-1.427l-25.6-34.133c-1.678-2.042-4.182-3.225-6.825-3.225c-2.643,0-5.147,1.183-6.825,3.225
			l-25.6,34.133c-0.308,0.449-0.571,0.927-0.787,1.427c-0.085,0.176-0.204,0.321-0.277,0.503c-0.365,0.926-0.564,1.909-0.586,2.904
			c-0.004,0.101-0.058,0.185-0.058,0.288V332.8c-0.001,2.263,0.898,4.434,2.499,6.035
			C302.766,340.435,304.937,341.334,307.2,341.333z M349.867,324.267h-34.133V307.2h34.133V324.267z M332.8,278.754l8.533,11.379
			h-17.067L332.8,278.754z"/>
		<path d="M238.933,332.8H119.467c-4.713,0-8.533,3.82-8.533,8.533s3.821,8.533,8.533,8.533h119.467
			c4.713,0,8.533-3.821,8.533-8.533S243.646,332.8,238.933,332.8z"/>
	</g>
</g>
<g>
</g>
<g>
</g>
<g>
</g>
<g>
</g>
<g>
</g>
<g>
</g>
<g>
</g>
<g>
</g>
<g>
</g>
<g>
</g>
<g>
</g>
<g>
</g>
<g>
</g>
<g>
</g>
<g>
</g>
</svg>
